<svg id="svg" version="1.1" xmlns="http://www.w3.org/2000/svg" xmlns:xlink="http://www.w3.org/1999/xlink" width="400" height="400" viewBox="0, 0, 400,400"><g id="svgg"><path id="path0" d="M147.123 49.944 C 147.085 49.981,137.345 50.056,125.478 50.110 C 93.413 50.255,76.327 50.486,75.300 50.787 C 75.190 50.820,75.010 50.867,74.900 50.893 C 74.790 50.918,74.655 50.960,74.600 50.986 C 74.501 51.033,73.734 51.174,73.250 51.235 C 73.112 51.253,73.000 51.342,73.000 51.433 C 73.000 51.525,72.864 51.600,72.697 51.600 C 72.531 51.600,72.193 51.704,71.947 51.831 C 70.837 52.405,70.756 52.433,70.903 52.195 C 71.002 52.034,70.898 52.043,70.574 52.223 C 70.313 52.367,70.030 52.465,69.944 52.441 C 69.859 52.416,69.737 52.532,69.673 52.697 C 69.610 52.862,69.469 52.943,69.360 52.875 C 69.251 52.808,68.904 52.943,68.589 53.176 C 68.274 53.409,67.875 53.600,67.702 53.600 C 67.529 53.600,67.336 53.734,67.273 53.899 C 67.210 54.063,67.078 54.148,66.979 54.087 C 66.881 54.026,66.800 54.050,66.800 54.140 C 66.800 54.230,66.611 54.422,66.379 54.567 C 66.148 54.711,66.017 54.734,66.089 54.617 C 66.170 54.487,66.100 54.451,65.912 54.523 C 65.741 54.589,65.652 54.722,65.713 54.821 C 65.774 54.919,65.728 55.000,65.612 55.000 C 65.495 55.000,65.333 55.011,65.250 55.025 C 64.946 55.075,63.486 56.173,63.051 56.679 C 62.805 56.965,62.483 57.200,62.337 57.200 C 62.191 57.200,61.880 57.403,61.646 57.650 C 61.411 57.898,61.129 58.190,61.019 58.300 C 60.909 58.410,60.492 58.879,60.094 59.341 C 59.695 59.804,59.189 60.240,58.969 60.310 C 58.750 60.379,58.616 60.483,58.673 60.540 C 58.730 60.596,58.688 60.746,58.581 60.871 C 58.474 60.997,58.248 61.280,58.078 61.500 C 57.909 61.720,57.836 61.774,57.916 61.619 C 58.012 61.434,57.983 61.387,57.831 61.481 C 57.704 61.559,57.600 61.744,57.600 61.890 C 57.600 62.037,57.474 62.206,57.319 62.265 C 56.971 62.399,55.775 64.108,55.925 64.258 C 55.985 64.318,55.847 64.468,55.617 64.591 C 55.388 64.714,55.200 64.991,55.200 65.207 C 55.200 65.423,55.110 65.600,55.000 65.600 C 54.890 65.600,54.800 65.724,54.800 65.876 C 54.800 66.027,54.665 66.263,54.500 66.400 C 54.335 66.537,54.200 66.810,54.200 67.008 C 54.200 67.205,54.105 67.398,53.989 67.437 C 53.873 67.476,53.757 67.654,53.730 67.833 C 53.704 68.013,53.551 68.318,53.391 68.511 C 53.231 68.704,53.120 68.870,53.144 68.881 C 53.290 68.944,52.916 69.800,52.743 69.800 C 52.628 69.800,52.593 69.859,52.665 69.932 C 52.737 70.004,52.696 70.184,52.574 70.332 C 52.451 70.479,52.414 70.600,52.492 70.600 C 52.569 70.600,52.439 70.913,52.202 71.296 C 51.966 71.679,51.829 72.084,51.898 72.196 C 51.967 72.308,51.923 72.400,51.800 72.400 C 51.677 72.400,51.628 72.484,51.691 72.586 C 51.755 72.689,51.719 72.826,51.612 72.893 C 51.505 72.959,51.468 73.145,51.530 73.306 C 51.592 73.468,51.536 73.600,51.405 73.600 C 51.274 73.600,51.206 73.713,51.255 73.850 C 51.303 73.987,51.255 74.325,51.147 74.600 C 50.173 77.093,49.963 99.091,49.967 198.200 C 49.971 287.960,50.218 321.992,50.887 324.800 C 50.952 325.075,51.047 325.602,51.097 325.972 C 51.146 326.341,51.279 326.755,51.392 326.890 C 51.504 327.026,51.537 327.196,51.465 327.268 C 51.393 327.341,51.436 327.400,51.560 327.400 C 51.685 327.400,51.736 327.535,51.672 327.700 C 51.609 327.865,51.666 328.000,51.800 328.000 C 51.934 328.000,51.992 328.132,51.930 328.294 C 51.868 328.456,51.944 328.715,52.099 328.870 C 52.254 329.025,52.326 329.208,52.258 329.275 C 52.191 329.342,52.294 329.572,52.487 329.786 C 52.681 330.000,52.782 330.267,52.712 330.380 C 52.643 330.493,52.769 330.769,52.993 330.993 C 53.217 331.217,53.400 331.527,53.400 331.683 C 53.400 331.839,53.495 331.998,53.611 332.037 C 53.727 332.076,53.850 332.241,53.884 332.404 C 54.031 333.109,54.452 333.992,54.598 333.901 C 54.686 333.847,54.813 334.025,54.882 334.298 C 54.950 334.570,55.272 335.096,55.598 335.468 C 55.924 335.839,56.125 336.223,56.045 336.321 C 55.965 336.420,55.979 336.436,56.077 336.357 C 56.290 336.183,57.000 337.040,57.000 337.471 C 57.000 337.641,57.315 338.020,57.700 338.314 C 58.085 338.607,58.400 338.933,58.400 339.038 C 58.400 339.310,58.926 339.800,59.219 339.800 C 59.355 339.800,59.407 339.860,59.334 339.933 C 59.261 340.006,59.476 340.232,59.811 340.436 C 60.146 340.639,60.365 340.895,60.298 341.003 C 60.231 341.111,60.322 341.200,60.500 341.200 C 60.678 341.200,60.768 341.290,60.700 341.400 C 60.632 341.510,60.655 341.600,60.750 341.600 C 60.846 341.600,61.142 341.803,61.408 342.050 C 61.675 342.298,61.962 342.478,62.046 342.450 C 62.131 342.423,62.200 342.535,62.200 342.700 C 62.200 342.865,62.335 343.000,62.500 343.000 C 62.665 343.000,62.800 343.105,62.800 343.233 C 62.800 343.362,62.854 343.412,62.921 343.346 C 62.988 343.279,63.235 343.433,63.471 343.688 C 63.707 343.942,63.945 344.142,64.000 344.132 C 64.055 344.122,64.400 344.336,64.767 344.607 C 65.133 344.878,65.483 345.070,65.544 345.033 C 65.605 344.996,65.710 345.045,65.778 345.143 C 65.965 345.414,67.800 346.437,67.800 346.270 C 67.800 346.190,67.942 346.298,68.115 346.512 C 68.288 346.725,68.373 346.788,68.303 346.650 C 68.116 346.281,68.271 346.342,68.906 346.889 C 69.219 347.157,69.542 347.336,69.624 347.285 C 69.705 347.235,69.830 347.286,69.900 347.400 C 69.970 347.514,70.111 347.555,70.214 347.491 C 70.316 347.428,70.400 347.481,70.400 347.610 C 70.400 347.738,70.535 347.791,70.700 347.728 C 70.865 347.664,71.000 347.690,71.000 347.785 C 71.000 347.880,71.140 348.011,71.310 348.076 C 71.504 348.151,71.570 348.114,71.486 347.977 C 71.412 347.857,71.576 347.906,71.850 348.086 C 72.304 348.383,72.745 348.535,73.600 348.690 C 73.765 348.720,74.035 348.794,74.200 348.856 C 74.365 348.917,74.770 349.033,75.100 349.115 C 75.430 349.196,75.835 349.300,76.000 349.346 C 76.165 349.391,76.458 349.428,76.650 349.427 C 76.843 349.426,77.000 349.513,77.000 349.621 C 77.000 349.729,77.113 349.799,77.250 349.777 C 77.388 349.755,77.649 349.802,77.830 349.882 C 78.211 350.050,314.477 349.885,318.700 349.714 C 321.089 349.617,323.405 349.473,324.350 349.363 C 324.488 349.346,324.600 349.266,324.600 349.184 C 324.600 349.102,324.757 349.058,324.950 349.087 C 325.142 349.115,325.592 349.016,325.950 348.866 C 326.307 348.717,326.600 348.644,326.600 348.704 C 326.600 348.765,326.803 348.702,327.050 348.565 C 327.298 348.427,327.576 348.337,327.668 348.363 C 327.760 348.390,328.413 348.139,329.118 347.806 C 329.824 347.473,330.491 347.200,330.601 347.200 C 330.710 347.200,330.800 347.113,330.800 347.006 C 330.800 346.900,330.928 346.862,331.085 346.922 C 331.241 346.982,331.556 346.844,331.785 346.615 C 332.013 346.387,332.245 346.200,332.300 346.200 C 332.355 346.200,332.540 346.200,332.712 346.200 C 332.883 346.200,332.968 346.110,332.900 346.000 C 332.832 345.890,332.965 345.800,333.194 345.800 C 333.424 345.800,333.664 345.666,333.727 345.501 C 333.790 345.337,333.909 345.244,333.991 345.294 C 334.072 345.345,334.333 345.206,334.570 344.985 C 334.806 344.765,335.000 344.637,335.000 344.700 C 335.000 344.764,335.247 344.588,335.548 344.308 C 335.849 344.029,336.212 343.800,336.354 343.800 C 336.496 343.800,336.664 343.666,336.727 343.501 C 336.790 343.337,336.903 343.240,336.978 343.286 C 337.052 343.332,337.323 343.107,337.579 342.785 C 337.835 342.463,338.134 342.200,338.244 342.200 C 338.490 342.200,339.500 341.364,339.543 341.125 C 339.561 341.028,339.781 340.847,340.033 340.721 C 340.286 340.595,340.594 340.288,340.718 340.039 C 340.842 339.790,341.227 339.333,341.572 339.025 C 341.917 338.717,342.200 338.360,342.200 338.232 C 342.200 338.104,342.281 338.023,342.380 338.050 C 342.479 338.078,342.563 338.026,342.567 337.935 C 342.571 337.844,342.773 337.597,343.017 337.385 C 343.262 337.173,343.402 337.000,343.331 337.000 C 343.213 337.000,343.355 336.823,344.309 335.783 C 344.469 335.609,344.600 335.321,344.600 335.143 C 344.600 334.965,344.743 334.740,344.918 334.642 C 345.093 334.544,345.228 334.405,345.218 334.332 C 345.163 333.929,345.222 333.790,345.400 333.900 C 345.510 333.968,345.600 333.894,345.600 333.736 C 345.600 333.578,345.735 333.337,345.900 333.200 C 346.065 333.063,346.200 332.782,346.200 332.576 C 346.200 332.369,346.287 332.200,346.394 332.200 C 346.500 332.200,346.530 332.050,346.460 331.867 C 346.380 331.660,346.412 331.584,346.544 331.665 C 346.670 331.743,346.892 331.377,347.095 330.757 C 347.282 330.185,347.555 329.546,347.702 329.336 C 347.850 329.126,347.916 328.815,347.851 328.644 C 347.766 328.422,347.808 328.381,348.000 328.500 C 348.196 328.621,348.234 328.576,348.140 328.333 C 348.070 328.150,348.097 328.000,348.200 328.000 C 348.303 328.000,348.336 327.865,348.272 327.700 C 348.209 327.535,348.254 327.400,348.372 327.400 C 348.491 327.400,348.536 327.265,348.472 327.100 C 348.409 326.935,348.462 326.800,348.590 326.800 C 348.719 326.800,348.770 326.713,348.704 326.606 C 348.638 326.499,348.723 326.142,348.894 325.812 C 349.064 325.482,349.192 325.142,349.178 325.056 C 349.164 324.970,349.173 324.855,349.198 324.800 C 350.432 322.108,350.238 75.268,349.001 74.050 C 348.973 74.023,348.939 73.918,348.925 73.817 C 348.911 73.716,348.839 73.572,348.764 73.497 C 348.689 73.422,348.676 73.235,348.735 73.080 C 348.794 72.926,348.743 72.800,348.621 72.800 C 348.500 72.800,348.420 72.733,348.444 72.650 C 348.467 72.567,348.365 72.185,348.215 71.800 C 348.065 71.415,347.956 71.033,347.971 70.950 C 347.987 70.867,347.929 70.800,347.843 70.800 C 347.756 70.800,347.670 70.606,347.653 70.368 C 347.635 70.130,347.548 69.883,347.460 69.818 C 347.227 69.646,346.291 67.739,346.350 67.556 C 346.378 67.470,346.305 67.400,346.188 67.400 C 346.072 67.400,346.026 67.320,346.086 67.223 C 346.146 67.125,346.062 66.934,345.898 66.798 C 345.734 66.662,345.600 66.436,345.600 66.297 C 345.600 66.157,345.377 65.830,345.103 65.571 C 344.830 65.312,344.605 64.950,344.603 64.767 C 344.602 64.583,344.353 64.239,344.050 64.002 C 343.748 63.765,343.628 63.637,343.784 63.718 C 343.965 63.812,343.929 63.679,343.684 63.353 C 343.473 63.070,343.261 62.877,343.213 62.923 C 343.166 62.969,343.010 62.729,342.867 62.389 C 342.724 62.050,342.532 61.818,342.440 61.875 C 342.349 61.932,342.117 61.714,341.926 61.391 C 341.735 61.067,341.404 60.709,341.190 60.594 C 340.975 60.480,340.800 60.260,340.800 60.107 C 340.800 59.953,340.523 59.630,340.184 59.389 C 339.589 58.965,339.381 58.787,337.975 57.500 C 337.615 57.170,337.248 56.923,337.160 56.950 C 337.072 56.978,337.000 56.865,337.000 56.700 C 337.000 56.429,336.763 56.311,336.350 56.376 C 336.268 56.389,336.200 56.316,336.200 56.213 C 336.200 56.111,336.019 55.969,335.797 55.899 C 335.575 55.829,335.446 55.688,335.509 55.586 C 335.572 55.484,335.433 55.400,335.200 55.400 C 334.967 55.400,334.820 55.330,334.872 55.245 C 334.925 55.159,334.701 54.936,334.375 54.749 C 334.027 54.549,333.841 54.510,333.925 54.654 C 334.004 54.789,333.827 54.663,333.532 54.374 C 333.236 54.085,332.736 53.797,332.421 53.734 C 332.106 53.671,331.721 53.492,331.565 53.336 C 331.296 53.067,330.737 52.825,330.300 52.788 C 330.190 52.778,329.808 52.590,329.450 52.369 C 329.093 52.148,328.800 52.031,328.800 52.108 C 328.800 52.186,328.665 52.137,328.500 52.000 C 328.335 51.863,328.200 51.817,328.200 51.899 C 328.200 51.980,327.977 51.900,327.704 51.721 C 327.431 51.542,326.981 51.377,326.704 51.354 C 326.427 51.332,326.200 51.233,326.200 51.135 C 326.200 51.037,326.074 51.006,325.920 51.065 C 325.765 51.124,325.581 51.114,325.510 51.043 C 325.439 50.972,325.138 50.890,324.840 50.860 C 324.543 50.830,323.760 50.754,323.100 50.690 C 318.153 50.211,147.579 49.488,147.123 49.944 M135.859 108.159 C 139.245 111.546,141.952 114.381,141.874 114.459 C 141.797 114.537,141.861 114.599,142.017 114.597 C 142.289 114.595,168.061 140.346,168.087 140.647 C 168.094 140.727,169.283 141.897,170.730 143.247 C 172.176 144.596,174.482 146.870,175.853 148.300 C 177.224 149.730,178.822 151.395,179.402 152.000 C 179.983 152.605,180.333 152.923,180.179 152.706 C 180.026 152.490,182.373 154.785,185.395 157.806 C 188.418 160.828,190.938 163.300,190.995 163.300 C 191.053 163.300,191.078 163.367,191.050 163.450 C 191.023 163.532,191.068 163.577,191.150 163.550 C 191.233 163.522,191.319 163.571,191.343 163.657 C 191.399 163.862,191.817 164.241,192.308 164.531 C 192.524 164.659,192.681 164.850,192.658 164.958 C 192.635 165.065,192.808 165.321,193.042 165.526 C 193.322 165.771,193.411 165.796,193.302 165.600 C 193.210 165.435,193.354 165.525,193.622 165.800 C 193.890 166.075,194.422 166.610,194.804 166.989 C 195.187 167.369,195.365 167.613,195.200 167.532 C 195.035 167.451,195.068 167.501,195.274 167.643 C 195.652 167.902,196.310 168.556,196.951 169.309 C 197.143 169.535,197.214 169.580,197.109 169.409 C 197.004 169.239,197.455 169.663,198.110 170.350 C 198.766 171.037,199.419 171.600,199.563 171.600 C 199.706 171.600,199.774 171.681,199.713 171.779 C 199.519 172.093,200.161 172.188,200.414 171.883 C 200.548 171.722,200.703 171.637,200.760 171.693 C 200.817 171.750,201.327 171.302,201.893 170.698 C 202.460 170.094,203.026 169.600,203.150 169.600 C 203.275 169.600,203.527 169.347,203.710 169.038 C 203.892 168.728,204.298 168.303,204.610 168.093 C 204.922 167.883,205.145 167.679,205.105 167.639 C 205.006 167.539,205.835 166.600,206.021 166.600 C 206.266 166.600,208.727 164.129,208.864 163.745 C 208.934 163.550,209.148 163.331,209.340 163.257 C 209.532 163.183,212.238 160.575,215.354 157.462 C 218.470 154.348,221.091 151.800,221.179 151.800 C 221.365 151.800,221.965 151.168,221.986 150.950 C 221.994 150.868,222.061 150.778,222.135 150.750 C 222.209 150.722,222.907 150.025,223.685 149.200 C 224.463 148.375,226.548 146.305,228.318 144.600 C 230.088 142.895,231.515 141.455,231.488 141.400 C 231.462 141.345,236.899 135.853,243.570 129.195 L 255.700 117.091 245.300 127.595 L 234.900 138.100 245.450 127.601 C 251.253 121.826,256.000 117.004,256.000 116.886 C 256.000 116.767,256.248 116.452,256.550 116.185 L 257.100 115.700 256.600 116.300 L 256.100 116.900 256.650 116.415 C 256.953 116.148,257.200 115.827,257.200 115.700 C 257.200 115.573,257.447 115.252,257.750 114.985 L 258.300 114.500 257.800 115.100 L 257.300 115.700 257.850 115.215 C 258.153 114.948,258.400 114.633,258.400 114.514 C 258.400 114.395,261.188 111.510,264.596 108.104 L 270.793 101.910 271.746 102.801 C 274.589 105.458,287.564 118.497,287.488 118.620 C 287.439 118.699,289.839 121.149,292.822 124.063 C 295.805 126.977,298.213 129.451,298.173 129.561 C 298.057 129.877,255.523 172.573,255.362 172.535 C 255.283 172.516,254.021 173.771,252.559 175.324 C 251.096 176.877,249.450 178.554,248.900 179.050 C 248.350 179.546,247.472 180.334,246.950 180.801 C 246.428 181.269,246.000 181.729,246.000 181.824 C 246.000 181.920,243.953 184.062,241.450 186.585 C 238.947 189.109,236.737 191.406,236.538 191.691 C 236.338 191.975,236.100 192.162,236.007 192.104 C 235.915 192.047,235.647 192.327,235.411 192.726 C 235.176 193.124,234.927 193.394,234.858 193.325 C 234.668 193.135,233.990 193.823,234.136 194.058 C 234.205 194.170,234.177 194.210,234.074 194.146 C 233.971 194.082,233.678 194.335,233.422 194.708 C 233.167 195.081,232.797 195.438,232.600 195.500 C 232.403 195.562,232.030 195.925,231.771 196.305 C 231.512 196.686,231.255 197.000,231.200 197.003 C 231.145 197.006,230.875 197.195,230.600 197.422 C 230.325 197.649,230.235 197.767,230.400 197.684 C 230.565 197.601,230.100 198.111,229.366 198.817 C 228.312 199.831,228.082 200.155,228.266 200.363 C 228.395 200.507,229.085 201.223,229.800 201.953 C 230.515 202.683,230.965 203.210,230.800 203.125 C 230.475 202.957,230.607 203.082,231.619 203.900 C 231.892 204.120,232.269 204.523,232.457 204.795 C 232.646 205.066,232.800 205.220,232.800 205.136 C 232.800 204.913,233.668 205.799,234.177 206.543 C 234.420 206.897,234.861 207.308,235.159 207.457 C 235.456 207.605,235.677 207.833,235.650 207.963 C 235.622 208.094,235.750 208.200,235.933 208.200 C 236.117 208.200,236.207 208.259,236.135 208.332 C 236.062 208.405,236.196 208.562,236.432 208.682 C 236.668 208.802,236.960 209.076,237.080 209.292 C 237.201 209.508,239.572 211.954,242.350 214.729 C 245.128 217.503,247.400 219.852,247.400 219.947 C 247.400 220.258,248.721 221.412,248.895 221.254 C 248.988 221.169,249.005 221.203,248.934 221.328 C 248.862 221.454,249.005 221.689,249.252 221.851 C 249.837 222.235,254.885 227.243,257.769 230.300 C 259.015 231.620,260.094 232.705,260.167 232.711 C 260.326 232.724,297.973 270.435,298.220 270.828 C 298.408 271.129,285.924 283.800,285.439 283.800 C 285.295 283.800,285.232 283.890,285.300 284.000 C 285.368 284.111,285.188 284.290,284.900 284.400 C 284.612 284.510,284.421 284.673,284.477 284.762 C 284.565 284.905,279.438 290.080,273.049 296.299 L 270.997 298.295 264.249 291.574 C 260.537 287.877,257.337 284.796,257.137 284.728 C 256.938 284.659,256.831 284.511,256.900 284.400 C 256.969 284.288,256.817 284.113,256.563 284.011 C 256.308 283.909,256.189 283.820,256.299 283.813 C 256.604 283.793,243.742 271.000,243.418 271.000 C 243.261 271.000,243.196 270.937,243.273 270.860 C 243.448 270.685,238.801 266.000,238.453 266.000 C 238.314 266.000,238.222 265.895,238.250 265.766 C 238.277 265.638,238.075 265.414,237.800 265.269 C 237.525 265.124,237.386 265.005,237.492 265.003 C 237.597 265.001,237.286 264.595,236.800 264.100 C 236.314 263.605,235.785 263.200,235.625 263.200 C 235.465 263.200,235.397 263.136,235.475 263.059 C 235.660 262.874,218.188 245.400,217.818 245.400 C 217.661 245.400,217.594 245.340,217.667 245.266 C 217.854 245.079,217.202 244.400,216.836 244.400 C 216.669 244.400,216.597 244.337,216.674 244.259 C 216.859 244.074,208.589 235.800,208.218 235.800 C 208.062 235.800,207.997 235.737,208.074 235.659 C 208.229 235.504,200.626 227.806,200.302 227.790 C 200.191 227.784,184.253 243.682,164.884 263.117 L 129.668 298.455 127.184 296.084 C 122.768 291.869,115.821 284.938,115.861 284.787 C 115.882 284.706,115.846 284.654,115.781 284.670 C 115.526 284.734,115.011 284.143,115.134 283.927 C 115.206 283.802,115.186 283.771,115.091 283.858 C 114.906 284.026,102.000 271.245,102.000 270.893 C 102.000 270.779,110.933 261.779,121.850 250.895 C 132.768 240.011,141.385 231.469,141.000 231.911 C 140.615 232.354,140.788 232.218,141.384 231.608 C 144.486 228.436,150.913 221.973,151.000 221.939 C 151.055 221.918,151.075 221.826,151.045 221.735 C 151.015 221.644,151.078 221.625,151.186 221.692 C 151.294 221.758,151.535 221.580,151.722 221.295 C 151.909 221.010,154.514 218.313,157.511 215.302 C 160.508 212.291,162.909 209.776,162.847 209.713 C 162.784 209.651,162.883 209.600,163.067 209.600 C 163.250 209.600,163.400 209.460,163.400 209.288 C 163.400 209.117,163.477 209.024,163.571 209.082 C 163.665 209.140,163.957 208.951,164.221 208.662 C 164.484 208.372,164.565 208.212,164.400 208.306 C 164.140 208.454,164.137 208.431,164.379 208.134 C 164.532 207.945,164.700 207.834,164.753 207.886 C 164.886 208.019,166.493 206.382,166.657 205.947 C 166.730 205.753,167.017 205.508,167.295 205.402 C 167.573 205.296,167.800 205.157,167.800 205.093 C 167.800 205.029,167.694 205.042,167.564 205.122 C 167.435 205.202,168.465 204.135,169.854 202.750 L 172.378 200.233 171.239 199.049 C 170.613 198.398,169.962 197.693,169.794 197.482 C 169.625 197.270,169.175 196.841,168.794 196.528 C 168.412 196.215,168.213 196.019,168.350 196.091 C 168.488 196.164,168.600 196.171,168.600 196.107 C 168.600 196.043,168.373 195.904,168.095 195.798 C 167.817 195.692,167.531 195.447,167.460 195.253 C 167.297 194.811,166.356 193.893,166.135 193.960 C 166.044 193.987,166.020 193.930,166.080 193.832 C 166.197 193.642,165.447 192.865,165.229 192.950 C 165.158 192.978,165.100 192.890,165.100 192.756 C 165.100 192.622,164.875 192.397,164.600 192.256 C 164.325 192.116,164.122 191.911,164.150 191.800 C 164.177 191.690,164.065 191.600,163.900 191.600 C 163.735 191.600,163.600 191.510,163.600 191.399 C 163.600 191.289,161.227 188.817,158.327 185.906 C 155.426 182.995,153.088 180.578,153.131 180.535 C 153.174 180.492,153.055 180.332,152.866 180.179 C 152.569 179.937,152.546 179.940,152.694 180.200 C 152.787 180.365,152.824 180.455,152.776 180.400 C 151.981 179.502,146.159 173.613,146.077 173.624 C 145.853 173.653,144.800 172.520,144.800 172.251 C 144.800 172.100,144.716 172.028,144.614 172.091 C 144.512 172.154,144.373 172.047,144.306 171.853 C 144.238 171.659,143.691 171.099,143.091 170.609 C 142.491 170.119,142.000 169.618,142.000 169.496 C 142.000 169.374,141.708 169.010,141.350 168.687 L 140.700 168.100 141.297 168.800 C 141.625 169.185,141.282 168.915,140.536 168.200 C 139.790 167.485,138.813 166.428,138.365 165.850 C 137.918 165.273,137.412 164.800,137.242 164.800 C 137.072 164.800,136.996 164.737,137.072 164.661 C 137.257 164.476,134.792 162.000,134.422 162.000 C 134.263 162.000,134.196 161.937,134.274 161.860 C 134.459 161.674,128.989 156.200,128.619 156.200 C 128.462 156.200,128.396 156.138,128.472 156.062 C 128.657 155.877,126.793 154.000,126.424 154.000 C 126.264 154.000,126.196 153.937,126.273 153.861 C 126.458 153.676,123.591 150.800,123.222 150.800 C 123.063 150.800,122.997 150.736,123.074 150.659 C 123.260 150.474,109.988 137.200,109.618 137.200 C 109.461 137.200,109.395 137.138,109.470 137.063 C 109.656 136.878,108.396 135.600,108.027 135.600 C 107.866 135.600,107.784 135.549,107.847 135.487 C 107.909 135.424,107.407 134.862,106.730 134.237 C 106.054 133.611,104.721 132.290,103.769 131.300 L 102.038 129.500 108.869 122.605 C 112.626 118.813,115.475 115.978,115.200 116.305 L 114.700 116.900 115.250 116.415 C 115.553 116.148,115.800 115.827,115.800 115.700 C 115.800 115.573,116.047 115.252,116.350 114.985 L 116.900 114.500 116.400 115.100 L 115.900 115.700 116.450 115.215 C 116.753 114.948,117.000 114.633,117.000 114.514 C 117.000 114.227,127.686 103.553,127.830 103.696 C 127.891 103.757,128.292 103.409,128.720 102.923 C 129.149 102.436,129.546 102.029,129.601 102.019 C 129.657 102.008,132.473 104.772,135.859 108.159 M122.399 109.150 L 117.100 114.500 122.450 109.201 C 127.422 104.278,127.890 103.800,127.749 103.800 C 127.720 103.800,125.313 106.208,122.399 109.150 M261.698 111.250 L 258.500 114.500 261.750 111.302 C 264.769 108.332,265.090 108.000,264.948 108.000 C 264.919 108.000,263.456 109.463,261.698 111.250 M281.200 112.500 C 282.241 113.545,283.137 114.400,283.192 114.400 C 283.247 114.400,282.441 113.545,281.400 112.500 C 280.359 111.455,279.463 110.600,279.408 110.600 C 279.353 110.600,280.159 111.455,281.200 112.500 M285.300 116.600 C 286.396 117.700,287.337 118.600,287.392 118.600 C 287.447 118.600,286.596 117.700,285.500 116.600 C 284.404 115.500,283.463 114.600,283.408 114.600 C 283.353 114.600,284.204 115.500,285.300 116.600 M232.087 140.850 L 231.500 141.500 232.150 140.913 C 232.756 140.365,232.892 140.200,232.737 140.200 C 232.703 140.200,232.410 140.493,232.087 140.850 M120.000 252.950 L 102.100 270.900 120.050 253.000 C 129.922 243.156,138.000 235.078,138.000 235.050 C 138.000 234.910,136.640 236.263,120.000 252.950 M106.100 275.000 C 108.298 277.200,110.141 279.000,110.196 279.000 C 110.251 279.000,108.498 277.200,106.300 275.000 C 104.102 272.800,102.259 271.000,102.204 271.000 C 102.149 271.000,103.902 272.800,106.100 275.000 " stroke="none" fill="#445454" fill-rule="evenodd"></path><path id="path1" d="M144.150 49.947 C 144.728 49.988,145.672 49.988,146.250 49.947 C 146.828 49.907,146.355 49.874,145.200 49.874 C 144.045 49.874,143.572 49.907,144.150 49.947 M157.450 49.949 C 158.853 49.984,161.148 49.984,162.550 49.949 C 163.953 49.915,162.805 49.887,160.000 49.887 C 157.195 49.887,156.048 49.915,157.450 49.949 M177.850 49.949 C 179.253 49.984,181.548 49.984,182.950 49.949 C 184.353 49.915,183.205 49.887,180.400 49.887 C 177.595 49.887,176.447 49.915,177.850 49.949 M197.950 49.949 C 199.188 49.984,201.213 49.984,202.450 49.949 C 203.688 49.914,202.675 49.886,200.200 49.886 C 197.725 49.886,196.713 49.914,197.950 49.949 M219.162 49.950 C 220.847 49.983,223.547 49.983,225.162 49.950 C 226.778 49.916,225.400 49.889,222.100 49.889 C 218.800 49.889,217.478 49.916,219.162 49.950 M241.250 49.949 C 242.322 49.985,244.078 49.985,245.150 49.949 C 246.222 49.913,245.345 49.884,243.200 49.884 C 241.055 49.884,240.178 49.913,241.250 49.949 M256.150 49.947 C 256.728 49.988,257.673 49.988,258.250 49.947 C 258.828 49.907,258.355 49.874,257.200 49.874 C 256.045 49.874,255.572 49.907,256.150 49.947 M107.350 50.141 C 107.597 50.189,108.003 50.189,108.250 50.141 C 108.498 50.093,108.295 50.054,107.800 50.054 C 107.305 50.054,107.103 50.093,107.350 50.141 M112.552 50.141 C 112.801 50.189,113.161 50.187,113.352 50.137 C 113.544 50.087,113.340 50.048,112.900 50.050 C 112.460 50.053,112.304 50.094,112.552 50.141 M116.154 50.145 C 116.513 50.189,117.053 50.189,117.354 50.143 C 117.654 50.097,117.360 50.061,116.700 50.062 C 116.040 50.063,115.794 50.100,116.154 50.145 M120.850 50.146 C 121.263 50.189,121.938 50.189,122.350 50.146 C 122.763 50.103,122.425 50.067,121.600 50.067 C 120.775 50.067,120.438 50.103,120.850 50.146 M128.350 50.145 C 128.708 50.189,129.292 50.189,129.650 50.145 C 130.008 50.100,129.715 50.064,129.000 50.064 C 128.285 50.064,127.993 50.100,128.350 50.145 M133.555 50.147 C 134.026 50.189,134.746 50.188,135.155 50.145 C 135.565 50.102,135.180 50.068,134.300 50.069 C 133.420 50.069,133.085 50.104,133.555 50.147 M267.354 50.145 C 267.713 50.189,268.253 50.189,268.554 50.143 C 268.854 50.097,268.560 50.061,267.900 50.062 C 267.240 50.063,266.994 50.100,267.354 50.145 M272.146 50.144 C 272.501 50.189,273.131 50.189,273.546 50.146 C 273.960 50.103,273.670 50.067,272.900 50.066 C 272.130 50.065,271.790 50.100,272.146 50.144 M279.746 50.144 C 280.101 50.189,280.731 50.189,281.146 50.146 C 281.560 50.103,281.270 50.067,280.500 50.066 C 279.730 50.065,279.390 50.100,279.746 50.144 M284.752 50.141 C 285.001 50.189,285.361 50.187,285.552 50.137 C 285.744 50.087,285.540 50.048,285.100 50.050 C 284.660 50.053,284.504 50.094,284.752 50.141 M288.053 50.144 C 288.357 50.189,288.807 50.188,289.053 50.141 C 289.299 50.093,289.050 50.056,288.500 50.057 C 287.950 50.059,287.749 50.098,288.053 50.144 M293.350 50.141 C 293.598 50.189,294.002 50.189,294.250 50.141 C 294.498 50.093,294.295 50.054,293.800 50.054 C 293.305 50.054,293.103 50.093,293.350 50.141 M102.552 50.341 C 102.801 50.389,103.161 50.387,103.352 50.337 C 103.544 50.287,103.340 50.248,102.900 50.250 C 102.460 50.253,102.304 50.294,102.552 50.341 M298.250 50.343 C 298.553 50.389,299.048 50.389,299.350 50.343 C 299.653 50.297,299.405 50.260,298.800 50.260 C 298.195 50.260,297.947 50.297,298.250 50.343 M308.650 50.338 C 308.843 50.388,309.158 50.388,309.350 50.338 C 309.543 50.288,309.385 50.246,309.000 50.246 C 308.615 50.246,308.457 50.288,308.650 50.338 M331.800 53.500 C 332.075 53.657,332.390 53.786,332.500 53.786 C 332.610 53.786,332.475 53.657,332.200 53.500 C 331.925 53.343,331.610 53.214,331.500 53.214 C 331.390 53.214,331.525 53.343,331.800 53.500 M337.800 57.377 C 337.800 57.474,338.048 57.712,338.350 57.906 L 338.900 58.258 338.415 57.729 C 337.891 57.157,337.800 57.105,337.800 57.377 M59.701 59.406 C 58.590 60.511,58.590 60.748,59.701 59.773 C 60.294 59.251,60.966 58.383,60.757 58.406 C 60.726 58.410,60.250 58.860,59.701 59.406 M339.310 58.654 C 339.364 58.794,339.608 59.031,339.854 59.181 C 340.279 59.440,340.278 59.428,339.815 58.926 C 339.274 58.339,339.167 58.281,339.310 58.654 M340.800 60.193 C 340.800 60.299,341.003 60.492,341.250 60.622 C 341.698 60.857,341.698 60.856,341.319 60.429 C 340.896 59.952,340.800 59.909,340.800 60.193 M50.046 102.400 C 50.046 102.785,50.088 102.942,50.138 102.750 C 50.188 102.558,50.188 102.243,50.138 102.050 C 50.088 101.858,50.046 102.015,50.046 102.400 M135.500 108.200 C 138.909 111.610,141.788 114.400,141.898 114.400 C 142.008 114.400,139.309 111.610,135.900 108.200 C 132.491 104.790,129.612 102.000,129.502 102.000 C 129.392 102.000,132.091 104.790,135.500 108.200 M264.549 108.151 C 261.167 111.534,258.400 114.376,258.400 114.467 C 258.400 114.557,258.615 114.375,258.878 114.062 C 259.141 113.750,261.954 110.965,265.128 107.875 L 270.900 102.255 277.200 108.434 C 280.665 111.832,284.404 115.487,285.509 116.556 C 286.615 117.625,283.809 114.788,279.274 110.250 C 274.739 105.713,270.954 102.000,270.863 102.000 C 270.772 102.000,267.931 104.768,264.549 108.151 M122.308 108.992 C 119.343 111.958,116.959 114.411,117.009 114.442 C 117.059 114.474,119.528 112.047,122.496 109.050 C 125.464 106.053,127.848 103.600,127.795 103.600 C 127.741 103.600,125.272 106.027,122.308 108.992 M50.060 105.600 C 50.060 106.205,50.097 106.453,50.143 106.150 C 50.189 105.847,50.189 105.353,50.143 105.050 C 50.097 104.748,50.060 104.995,50.060 105.600 M116.201 115.099 C 115.943 115.374,115.770 115.632,115.816 115.673 C 115.862 115.714,116.109 115.489,116.365 115.174 C 116.938 114.468,116.837 114.422,116.201 115.099 M154.101 126.813 C 160.810 133.530,166.705 139.371,167.200 139.794 C 167.695 140.216,162.295 134.719,155.200 127.578 C 148.105 120.438,142.210 114.596,142.101 114.598 C 141.991 114.599,147.391 120.096,154.101 126.813 M257.601 115.099 C 257.343 115.374,257.170 115.632,257.216 115.673 C 257.262 115.714,257.509 115.489,257.765 115.174 C 258.338 114.468,258.237 114.422,257.601 115.099 M108.769 122.659 L 102.038 129.500 103.769 131.300 C 104.721 132.290,106.040 133.591,106.700 134.192 C 107.360 134.793,106.618 133.982,105.051 132.390 L 102.201 129.496 108.114 123.598 C 113.191 118.533,115.833 115.773,115.569 115.809 C 115.531 115.815,112.471 118.897,108.769 122.659 M256.401 116.299 C 256.143 116.574,255.970 116.832,256.016 116.873 C 256.062 116.914,256.309 116.689,256.565 116.374 C 257.138 115.668,257.037 115.622,256.401 116.299 M243.490 129.247 C 236.786 135.983,231.660 141.175,232.100 140.787 C 233.134 139.873,255.899 117.000,255.775 117.000 C 255.723 117.000,250.195 122.511,243.490 129.247 M296.500 127.800 C 297.375 128.680,298.136 129.400,298.191 129.400 C 298.246 129.400,297.575 128.680,296.700 127.800 C 295.825 126.920,295.064 126.200,295.009 126.200 C 294.954 126.200,295.625 126.920,296.500 127.800 M276.746 150.958 C 265.006 162.704,255.400 172.381,255.400 172.462 C 255.400 172.543,258.581 169.435,262.469 165.555 C 273.815 154.231,298.280 129.600,298.182 129.600 C 298.133 129.600,288.486 139.211,276.746 150.958 M173.798 146.457 C 176.383 149.066,178.534 151.200,178.579 151.200 C 178.773 151.200,173.186 145.528,170.800 143.300 C 169.865 142.428,171.214 143.848,173.798 146.457 M226.655 146.250 C 222.028 150.887,222.307 150.600,222.418 150.600 C 222.465 150.600,224.392 148.710,226.700 146.400 C 229.008 144.090,230.851 142.200,230.797 142.200 C 230.742 142.200,228.878 144.023,226.655 146.250 M49.854 146.600 C 49.854 147.095,49.893 147.297,49.941 147.050 C 49.989 146.803,49.989 146.398,49.941 146.150 C 49.893 145.903,49.854 146.105,49.854 146.600 M349.850 158.300 C 349.853 158.740,349.894 158.896,349.941 158.648 C 349.989 158.399,349.987 158.039,349.937 157.848 C 349.887 157.656,349.848 157.860,349.850 158.300 M349.864 163.000 C 349.864 163.715,349.900 164.008,349.945 163.650 C 349.989 163.293,349.989 162.708,349.945 162.350 C 349.900 161.993,349.864 162.285,349.864 163.000 M190.800 163.083 C 190.800 163.294,191.402 163.864,191.511 163.756 C 191.561 163.705,191.422 163.501,191.201 163.301 C 190.981 163.101,190.800 163.003,190.800 163.083 M208.996 163.505 C 208.857 163.672,208.783 163.850,208.832 163.899 C 208.881 163.948,209.073 163.811,209.259 163.594 C 209.444 163.377,209.518 163.200,209.423 163.200 C 209.327 163.200,209.135 163.337,208.996 163.505 M49.870 167.000 C 49.870 167.935,49.904 168.317,49.946 167.850 C 49.989 167.383,49.989 166.618,49.946 166.150 C 49.904 165.683,49.870 166.065,49.870 167.000 M138.747 166.300 C 139.199 166.850,140.087 167.795,140.721 168.400 L 141.874 169.500 140.854 168.300 C 140.292 167.640,139.404 166.695,138.880 166.200 L 137.926 165.300 138.747 166.300 M193.200 165.470 C 193.200 165.693,194.647 167.211,195.081 167.443 C 195.319 167.571,195.200 167.374,194.803 166.983 C 194.421 166.607,193.904 166.084,193.654 165.821 C 193.404 165.557,193.200 165.399,193.200 165.470 M205.437 167.100 C 205.198 167.375,205.070 167.598,205.151 167.597 C 205.372 167.591,206.273 166.600,206.057 166.600 C 205.955 166.600,205.676 166.825,205.437 167.100 M349.850 168.100 C 349.853 168.540,349.894 168.696,349.941 168.448 C 349.989 168.199,349.987 167.839,349.937 167.648 C 349.887 167.456,349.848 167.660,349.850 168.100 M196.000 168.500 C 196.661 169.182,196.800 169.289,196.800 169.115 C 196.800 168.982,195.583 167.800,195.445 167.800 C 195.377 167.800,195.627 168.115,196.000 168.500 M204.500 168.159 C 204.280 168.350,203.969 168.684,203.809 168.903 C 203.648 169.121,203.851 168.990,204.259 168.611 C 204.925 167.991,205.101 167.787,204.950 167.807 C 204.923 167.810,204.720 167.969,204.500 168.159 M349.850 169.900 C 349.853 170.340,349.894 170.496,349.941 170.248 C 349.989 169.999,349.987 169.639,349.937 169.448 C 349.887 169.256,349.848 169.460,349.850 169.900 M142.000 169.550 C 142.000 169.633,142.473 170.097,143.050 170.583 L 144.100 171.465 143.108 170.433 C 142.079 169.362,142.000 169.299,142.000 169.550 M49.854 171.600 C 49.854 172.095,49.893 172.298,49.941 172.050 C 49.989 171.803,49.989 171.398,49.941 171.150 C 49.893 170.903,49.854 171.105,49.854 171.600 M200.406 171.893 C 200.268 172.059,200.052 172.138,199.927 172.068 C 199.796 171.995,199.806 172.056,199.951 172.212 C 200.162 172.439,200.258 172.428,200.540 172.146 C 200.725 171.961,200.827 171.760,200.767 171.700 C 200.706 171.640,200.544 171.727,200.406 171.893 M144.800 172.329 C 144.800 172.437,145.093 172.790,145.450 173.113 L 146.100 173.700 145.500 173.001 C 145.170 172.617,144.878 172.264,144.850 172.218 C 144.822 172.171,144.800 172.221,144.800 172.329 M250.698 177.037 C 247.561 180.212,246.914 180.971,249.311 178.665 C 250.852 177.182,254.100 173.800,253.984 173.800 C 253.935 173.800,252.456 175.257,250.698 177.037 M149.703 177.200 C 151.351 178.904,152.735 180.344,152.777 180.400 C 152.819 180.455,152.758 180.320,152.640 180.100 C 152.522 179.880,151.139 178.440,149.566 176.900 L 146.706 174.100 149.703 177.200 M350.062 181.300 C 350.063 181.960,350.100 182.206,350.145 181.846 C 350.189 181.487,350.189 180.947,350.143 180.646 C 350.097 180.346,350.061 180.640,350.062 181.300 M49.854 182.200 C 49.854 182.695,49.893 182.898,49.941 182.650 C 49.989 182.403,49.989 181.998,49.941 181.750 C 49.893 181.503,49.854 181.705,49.854 182.200 M49.850 184.500 C 49.853 184.940,49.894 185.096,49.941 184.848 C 49.989 184.599,49.987 184.239,49.937 184.048 C 49.887 183.856,49.848 184.060,49.850 184.500 M350.050 184.500 C 350.053 184.940,350.094 185.096,350.141 184.848 C 350.189 184.599,350.187 184.239,350.137 184.048 C 350.087 183.856,350.048 184.060,350.050 184.500 M350.064 186.800 C 350.064 187.515,350.100 187.808,350.145 187.450 C 350.189 187.093,350.189 186.508,350.145 186.150 C 350.100 185.793,350.064 186.085,350.064 186.800 M49.862 189.500 C 49.863 190.160,49.900 190.406,49.945 190.046 C 49.989 189.687,49.989 189.147,49.943 188.846 C 49.897 188.546,49.861 188.840,49.862 189.500 M238.687 189.250 L 238.100 189.900 238.750 189.313 C 239.356 188.765,239.492 188.600,239.337 188.600 C 239.303 188.600,239.010 188.893,238.687 189.250 M162.200 189.863 C 162.200 189.897,162.493 190.190,162.850 190.513 L 163.500 191.100 162.913 190.450 C 162.365 189.844,162.200 189.708,162.200 189.863 M236.450 191.482 C 235.939 192.021,235.840 192.381,236.311 191.991 C 236.595 191.756,237.092 190.995,236.957 191.003 C 236.926 191.005,236.697 191.221,236.450 191.482 M49.854 192.200 C 49.854 192.695,49.893 192.898,49.941 192.650 C 49.989 192.403,49.989 191.998,49.941 191.750 C 49.893 191.503,49.854 191.705,49.854 192.200 M235.144 192.802 C 234.763 193.248,234.692 193.490,234.999 193.301 C 235.195 193.179,235.673 192.400,235.551 192.400 C 235.517 192.400,235.334 192.581,235.144 192.802 M232.989 194.912 C 232.610 195.304,232.444 195.570,232.620 195.503 C 232.895 195.397,233.930 194.200,233.745 194.200 C 233.709 194.200,233.368 194.521,232.989 194.912 M167.400 195.141 C 167.400 195.371,167.968 195.905,168.079 195.779 C 168.117 195.735,167.980 195.527,167.774 195.315 C 167.568 195.103,167.400 195.025,167.400 195.141 M168.300 196.129 C 169.318 197.032,169.693 197.296,169.301 196.831 C 169.083 196.574,168.723 196.270,168.502 196.157 C 168.281 196.044,168.190 196.031,168.300 196.129 M231.189 196.724 C 230.810 197.122,230.680 197.339,230.900 197.205 C 231.261 196.985,232.119 196.000,231.949 196.000 C 231.910 196.000,231.568 196.326,231.189 196.724 M350.046 201.600 C 350.046 201.985,350.088 202.143,350.138 201.950 C 350.188 201.758,350.188 201.442,350.138 201.250 C 350.088 201.058,350.046 201.215,350.046 201.600 M168.474 204.108 C 167.909 204.702,167.594 205.109,167.774 205.012 C 168.092 204.839,168.852 204.055,169.384 203.350 C 169.857 202.725,169.522 203.004,168.474 204.108 M231.691 204.165 C 232.125 204.624,232.509 205.000,232.542 205.000 C 232.723 205.000,232.066 204.234,231.525 203.815 C 231.001 203.408,231.028 203.464,231.691 204.165 M232.800 205.153 C 232.800 205.246,233.134 205.632,233.541 206.011 C 233.949 206.390,234.156 206.520,234.002 206.300 C 233.587 205.709,232.800 204.958,232.800 205.153 M350.046 205.800 C 350.046 206.185,350.088 206.343,350.138 206.150 C 350.188 205.957,350.188 205.643,350.138 205.450 C 350.088 205.257,350.046 205.415,350.046 205.800 M166.796 205.705 C 166.657 205.872,166.583 206.050,166.632 206.099 C 166.681 206.148,166.873 206.011,167.059 205.794 C 167.244 205.577,167.318 205.400,167.223 205.400 C 167.127 205.400,166.935 205.537,166.796 205.705 M49.854 208.800 C 49.854 209.295,49.893 209.498,49.941 209.250 C 49.989 209.003,49.989 208.597,49.941 208.350 C 49.893 208.103,49.854 208.305,49.854 208.800 M236.636 209.099 C 236.875 209.373,237.113 209.553,237.167 209.500 C 237.288 209.378,236.599 208.600,236.370 208.600 C 236.278 208.600,236.398 208.824,236.636 209.099 M161.487 211.250 L 160.900 211.900 161.550 211.313 C 162.156 210.765,162.292 210.600,162.137 210.600 C 162.103 210.600,161.810 210.893,161.487 211.250 M49.846 212.400 C 49.846 212.785,49.888 212.943,49.938 212.750 C 49.988 212.558,49.988 212.243,49.938 212.050 C 49.888 211.857,49.846 212.015,49.846 212.400 M253.998 226.659 C 256.693 229.377,258.936 231.600,258.985 231.600 C 259.172 231.600,250.576 222.928,249.577 222.109 C 249.314 221.894,251.304 223.942,253.998 226.659 M147.800 225.048 C 146.205 226.670,144.293 228.627,143.550 229.399 C 142.808 230.170,144.154 228.869,146.542 226.508 C 148.929 224.148,150.842 222.190,150.791 222.158 C 150.741 222.126,149.395 223.427,147.800 225.048 M49.862 224.900 C 49.863 225.560,49.900 225.806,49.945 225.446 C 49.989 225.087,49.989 224.547,49.943 224.246 C 49.897 223.946,49.861 224.240,49.862 224.900 M350.078 226.800 C 350.078 228.285,350.110 228.893,350.148 228.150 C 350.187 227.407,350.187 226.193,350.148 225.450 C 350.110 224.707,350.078 225.315,350.078 226.800 M164.700 263.000 C 145.230 282.470,129.390 298.402,129.500 298.404 C 129.610 298.405,145.585 282.471,165.000 262.994 C 184.415 243.517,200.255 227.585,200.200 227.590 C 200.145 227.596,184.170 243.530,164.700 263.000 M350.070 232.000 C 350.070 232.935,350.104 233.318,350.146 232.850 C 350.189 232.382,350.189 231.618,350.146 231.150 C 350.104 230.683,350.070 231.065,350.070 232.000 M121.748 250.955 C 110.884 261.815,101.996 270.790,101.998 270.901 C 102.000 271.109,122.958 292.052,126.516 295.402 C 127.625 296.446,122.608 291.403,115.366 284.195 C 108.125 276.987,102.200 270.997,102.200 270.884 C 102.200 270.771,110.728 262.163,121.150 251.755 C 141.146 231.788,141.734 231.197,141.591 231.205 C 141.541 231.208,132.611 240.096,121.748 250.955 M261.009 233.600 C 261.687 234.398,298.421 271.109,298.192 270.760 C 298.141 270.684,289.582 262.089,279.171 251.660 C 268.760 241.232,260.587 233.105,261.009 233.600 M350.046 235.200 C 350.046 235.585,350.088 235.743,350.138 235.550 C 350.188 235.357,350.188 235.043,350.138 234.850 C 350.088 234.657,350.046 234.815,350.046 235.200 M350.078 239.400 C 350.078 240.885,350.110 241.493,350.148 240.750 C 350.187 240.007,350.187 238.793,350.148 238.050 C 350.110 237.308,350.078 237.915,350.078 239.400 M49.846 238.600 C 49.846 238.985,49.888 239.143,49.938 238.950 C 49.988 238.757,49.988 238.443,49.938 238.250 C 49.888 238.058,49.846 238.215,49.846 238.600 M49.846 241.400 C 49.846 241.785,49.888 241.943,49.938 241.750 C 49.988 241.558,49.988 241.243,49.938 241.050 C 49.888 240.857,49.846 241.015,49.846 241.400 M49.846 248.800 C 49.846 249.185,49.888 249.343,49.938 249.150 C 49.988 248.957,49.988 248.643,49.938 248.450 C 49.888 248.257,49.846 248.415,49.846 248.800 M349.850 253.900 C 349.853 254.340,349.894 254.496,349.941 254.248 C 349.989 253.999,349.987 253.639,349.937 253.448 C 349.887 253.256,349.848 253.460,349.850 253.900 M349.846 261.600 C 349.846 261.985,349.888 262.143,349.938 261.950 C 349.988 261.757,349.988 261.443,349.938 261.250 C 349.888 261.058,349.846 261.215,349.846 261.600 M49.846 262.000 C 49.846 262.385,49.888 262.543,49.938 262.350 C 49.988 262.157,49.988 261.843,49.938 261.650 C 49.888 261.457,49.846 261.615,49.846 262.000 M291.700 277.400 C 288.181 280.920,285.392 283.800,285.502 283.800 C 285.612 283.800,288.581 280.920,292.100 277.400 C 295.619 273.880,298.408 271.000,298.298 271.000 C 298.188 271.000,295.219 273.880,291.700 277.400 M277.599 291.537 C 272.418 296.748,271.806 297.408,274.900 294.451 C 280.033 289.544,284.751 284.800,284.496 284.800 C 284.387 284.800,281.283 287.832,277.599 291.537 M50.057 291.100 C 50.059 291.650,50.098 291.851,50.144 291.547 C 50.189 291.243,50.188 290.793,50.141 290.547 C 50.093 290.301,50.056 290.550,50.057 291.100 M349.846 290.800 C 349.846 291.185,349.888 291.343,349.938 291.150 C 349.988 290.957,349.988 290.643,349.938 290.450 C 349.888 290.257,349.846 290.415,349.846 290.800 M55.628 335.697 C 56.311 336.696,57.000 337.491,56.999 337.281 C 56.999 337.181,56.629 336.695,56.177 336.200 C 55.726 335.705,55.478 335.479,55.628 335.697 M59.742 340.575 C 60.203 341.019,60.512 341.144,60.301 340.801 C 60.233 340.692,59.980 340.501,59.739 340.376 L 59.300 340.151 59.742 340.575 M335.628 344.207 C 335.008 344.723,335.288 344.717,335.945 344.200 C 336.225 343.980,336.374 343.803,336.277 343.807 C 336.180 343.810,335.888 343.990,335.628 344.207 M320.250 349.738 C 320.443 349.788,320.757 349.788,320.950 349.738 C 321.143 349.688,320.985 349.646,320.600 349.646 C 320.215 349.646,320.058 349.688,320.250 349.738 M273.250 349.949 C 274.543 349.984,276.657 349.984,277.950 349.949 C 279.243 349.915,278.185 349.886,275.600 349.886 C 273.015 349.886,271.957 349.915,273.250 349.949 M290.650 349.948 C 291.282 349.987,292.318 349.987,292.950 349.948 C 293.582 349.908,293.065 349.876,291.800 349.876 C 290.535 349.876,290.018 349.908,290.650 349.948 M301.650 349.947 C 302.173 349.988,303.028 349.988,303.550 349.947 C 304.072 349.906,303.645 349.872,302.600 349.872 C 301.555 349.872,301.127 349.906,301.650 349.947 M306.952 349.941 C 307.201 349.989,307.561 349.987,307.752 349.937 C 307.944 349.887,307.740 349.848,307.300 349.850 C 306.860 349.853,306.704 349.894,306.952 349.941 M309.550 349.941 C 309.798 349.989,310.203 349.989,310.450 349.941 C 310.697 349.893,310.495 349.854,310.000 349.854 C 309.505 349.854,309.303 349.893,309.550 349.941 M313.650 349.938 C 313.843 349.988,314.158 349.988,314.350 349.938 C 314.543 349.888,314.385 349.846,314.000 349.846 C 313.615 349.846,313.457 349.888,313.650 349.938 " stroke="none" fill="#444c54" fill-rule="evenodd"></path></g></svg>