<svg xmlns="http://www.w3.org/2000/svg" xmlns:xlink="http://www.w3.org/1999/xlink" version="1.1" x="0px" y="0px" viewBox="0 0 100 100" enable-background="new 0 0 100 100" xml:space="preserve"><path fill='#09183F' d="M50,5C25.1,5,5,25.1,5,50c0,24.8,20.1,45,45,45c24.9,0,45-20.2,45-45C95,25.1,74.9,5,50,5L50,5z M25.1,70.8  c-2.4,0-4.4-2-4.4-4.4c0-2.4,2-4.4,4.4-4.4h49.7c2.4,0,4.4,2,4.4,4.4c0,2.4-2,4.4-4.4,4.4H25.1z M25.1,54.4c-2.4,0-4.4-2-4.4-4.4  c0-2.5,2-4.4,4.4-4.4h49.7c2.4,0,4.4,2,4.4,4.4c0,2.4-2,4.4-4.4,4.4H25.1z M25.1,37.9c-2.4,0-4.4-2-4.4-4.4c0-2.4,2-4.4,4.4-4.4  h49.7c2.4,0,4.4,2,4.4,4.4c0,2.4-2,4.4-4.4,4.4H25.1z"></path></svg>